# xmcd
#
# Track frame offsets: 
#        150
#        19615
#        42365
#        65943
#        83938
#        105063
#        124086
#        145291
#        167537
#        192367
#        214559
#        231234
#        250259
#        273505
#        291785
#        310880
#
# Disc length: 4462 seconds
#
# Revision: 0
# Processed by: cddbd v1.5.2PL0 Copyright (c) Steve Scherf et al.
# Submitted via: ExactAudioCopyFreeDBPlugin 1.0
#
DISCID=e4116c10
DTITLE=Mary J. Blige - HERstory Vol. 1
DYEAR=2019
DGENRE=No, thanks.
TTITLE0=You Remind Me
TTITLE1=Real Love (Hip-Hop Remix)
TTITLE2=Mary J. Blige feat. C.L. Smooth - Reminisce (Bad Boy Remix)
TTITLE3=Love No Limit (Puff Daddy Mix)
TTITLE4=Mary J. Blige feat. Craig Mack - You Don't Have To Worry (Remi
TTITLE4=x Main With Rap)
TTITLE5=Mary J. Blige feat. Grand Puba - What's The 411?
TTITLE6=Mary J. Blige feat. Notorious B.I.G. and K-Ci - What's The 411? 
TTITLE6=(Remix)
TTITLE7=Be Happy
TTITLE8=Mary J. Blige feat. LL Cool J - Mary Jane (All Night Long) (Re
TTITLE8=mix)
TTITLE9=Mary J. Blige feat. Smif N' Wesson - I Love You (Remix)
TTITLE10=I'm Goin' Down
TTITLE11=You Bring Me Joy
TTITLE12=Mary J. Blige feat. Method Man - I'll Be There For You - You'
TTITLE12=re All I Need To Get By (Puff Daddy Mix)
TTITLE13=Everyday It Rains
TTITLE14=Mary J. Blige feat. Nas - Love Is All We Need
TTITLE15=Jay-Z feat. Mary J. Blige - Can't Knock The Hustle
EXTD=
EXTT0=
EXTT1=
EXTT2=
EXTT3=
EXTT4=
EXTT5=
EXTT6=
EXTT7=
EXTT8=
EXTT9=
EXTT10=
EXTT11=
EXTT12=
EXTT13=
EXTT14=
EXTT15=
PLAYORDER=
